<?xml version="1.0" encoding="utf-8"?>
<!-- Generator: Adobe Illustrator 19.2.0, SVG Export Plug-In . SVG Version: 6.00 Build 0)  -->
<svg version="1.1" id="Layer_1" xmlns="http://www.w3.org/2000/svg" xmlns:xlink="http://www.w3.org/1999/xlink" x="0px" y="0px"
	 width="543px" height="132.5px" viewBox="0 0 543 132.5" style="enable-background:new 0 0 543 132.5;" xml:space="preserve">
<style type="text/css">
	.st0{fill:#454545;}
	.st1{fill:;}
</style>
<g>
	<polygon fill="#454545" points="16.5,103.8 30.8,103.8 30.8,61.7 50.5,61.7 50.5,49.2 16.5,49.2 	"/>
	<path fill="#454545" d="M120.4,59.8c-1.1-2-2.3-3.8-3.9-5.4c-1.5-1.6-3.5-2.8-5.8-3.7c-2.3-0.9-4.9-1.4-7.7-1.4h-24v54.6h14v-14h10
		c2.8,0,5.4-0.5,7.7-1.4c2.3-0.9,4.3-2.2,5.8-3.7c1.5-1.6,2.8-3.4,3.9-5.4c1.1-2,1.7-4.2,1.9-6.4c0.2-2.2,0.2-4.5,0-6.7
		C122.1,63.9,121.4,61.8,120.4,59.8z M108.6,71.2c-0.2,1.1-0.5,2.1-1,3s-1.1,1.7-1.9,2.2c-0.9,0.6-1.8,0.9-2.8,0.9h-10V61.7
		c0.7,0,1.7,0,3.1,0c1.4,0,2.6,0,3.7,0c1.1,0,2.2,0,3.1,0c1.1,0,2.1,0.3,2.9,0.9c0.8,0.6,1.5,1.3,1.9,2.2c0.4,0.9,0.7,1.9,0.9,3
		C108.9,69,108.9,70.1,108.6,71.2z"/>
	<path fill="#454545" d="M195.3,55.4c-2.6-2.3-5.6-4-9-5.2c-3.4-1.2-6.8-1.8-10.3-1.8c-3.5,0-6.9,0.6-10.3,1.8c-3.4,1.2-6.3,3-9,5.2
		c-2.6,2.3-4.7,5.2-6.3,8.9c-1.6,3.7-2.4,7.8-2.4,12.3c0,4.6,0.8,8.7,2.4,12.4c1.6,3.7,3.7,6.7,6.3,8.9c2.6,2.3,5.6,4,9,5.3
		c3.4,1.2,6.8,1.8,10.3,1.8c3.5,0,6.9-0.6,10.3-1.8c3.4-1.2,6.4-3,9-5.3c2.6-2.3,4.7-5.2,6.3-8.9c1.6-3.7,2.4-7.8,2.4-12.4
		c0-4.5-0.8-8.6-2.4-12.3C200,60.6,197.9,57.6,195.3,55.4z M188.6,83c-0.8,1.9-1.8,3.5-3.1,4.7c-1.3,1.2-2.7,2.1-4.4,2.7
		c-1.6,0.6-3.3,1-5,1s-3.4-0.3-5-1c-1.6-0.6-3.1-1.5-4.4-2.7c-1.3-1.2-2.3-2.7-3.1-4.7c-0.8-1.9-1.2-4.1-1.2-6.5
		c0-2.4,0.4-4.5,1.2-6.4c0.8-1.9,1.8-3.5,3.1-4.6c1.3-1.2,2.7-2.1,4.4-2.7c1.6-0.6,3.3-1,5-1s3.4,0.3,5,1c1.6,0.6,3.1,1.5,4.4,2.7
		c1.3,1.2,2.3,2.7,3.1,4.6c0.8,1.9,1.2,4,1.2,6.4C189.7,79,189.3,81.1,188.6,83z"/>
	<polygon fill="#454545" points="261.1,75.3 239.8,48.5 234.6,48.5 234.6,103.8 248.9,103.8 248.9,81.4 261.2,94.2 273.6,81.4 
		273.6,103.8 287.8,103.8 287.8,48.5 282.9,48.4 	"/>
	<path fill="#454545" d="M338.7,50.4c-3.7,0-8.4-1.9-8.4-1.9l-19.9,55.3h0.7h13.6l3.2-6.8h21.5l3.2,6.8h13.6h0.7l-20-55.3
		C347,48.5,342.2,50.4,338.7,50.4z M332.5,85l6.2-20.6l6.3,20.6H332.5z"/>
	<circle fill="#2474B7" cx="338.7" cy="37.6" r="8.9"/>
	<path fill="#454545" d="M488.4,43.8c-5.3,0-12-2.7-12-2.7l-28.2,78.3h1h19.3l4.5-9.7h30.5l4.5,9.7h19.3h1l-28.3-78.3
		C500.2,41.2,493.4,43.8,488.4,43.8z M479.5,92.8l8.7-29.2l9,29.2H479.5z"/>
	<circle fill="#2474B7" cx="488.4" cy="25.7" r="12.7"/>
	<path fill="#454545" d="M436.9,60.2c-1.5-2.4-3.3-4.5-5.4-6.3c-2.1-1.8-4.7-3.2-7.7-4.3c-3-1-6.3-1.6-9.8-1.6h-21.1v56.1h21.2
		c3.5,0,6.8-0.6,9.8-1.6c3-1,5.6-2.5,7.7-4.3c2.1-1.8,3.9-3.9,5.4-6.3c1.5-2.4,2.6-4.9,3.3-7.6c0.7-2.7,1.1-5.4,1.1-8.3
		c0-2.8-0.4-5.6-1.1-8.3C439.5,65.1,438.4,62.6,436.9,60.2z M426.5,81.6c-0.6,1.8-1.4,3.4-2.5,4.8c-1.1,1.4-2.5,2.5-4.2,3.4
		c-1.7,0.9-3.7,1.3-5.8,1.3h-6.8v-30h6.8c2.2,0,4.1,0.4,5.8,1.3c1.7,0.9,3.1,2,4.2,3.4c1.1,1.4,1.9,3,2.5,4.8
		c0.6,1.8,0.9,3.6,0.9,5.5C427.4,78,427.1,79.8,426.5,81.6z"/>
</g>
</svg>
