<?xml version="1.0" encoding="utf-8"?>
<!-- Generator: Adobe Illustrator 19.2.0, SVG Export Plug-In . SVG Version: 6.00 Build 0)  -->
<svg version="1.1" xmlns="http://www.w3.org/2000/svg" xmlns:xlink="http://www.w3.org/1999/xlink" x="0px" y="0px" width="528px"
	 height="900px" viewBox="0 0 528 900" style="enable-background:new 0 0 528 900;" xml:space="preserve">
<style type="text/css">
	.st0{display:none;}
	.st1{display:inline;}
	.st2{fill:#333333;}
	.st3{fill:#FABB05;}
</style>
<g id="Layer_2" class="st0">
	<g class="st1">
		<rect x="-540.6" class="st2" width="1600" height="900"/>
	</g>
</g>
<g id="Layer_1">
	<g>
		<polygon class="st3" points="78,845.9 78,780.9 64.6,780.9 64.6,845.9 64.6,862.2 78,862.2 89.6,862.2 89.6,845.9 		"/>
		<path class="st3" d="M173.5,862.2v-81.3H207v16.3h-20.1v16.3h17.6v16.3h-17.6v16.3h21.2v16.3H173.5z"/>
		<path class="st2" d="M305.4,853.4l-2.6,8.8h-15.1l28.8-86.5l0,0l28.8,86.5h-15l-2.7-8.8l-4.9-15.2l-6.1-21.1l-6.3,21.1
			L305.4,853.4z"/>
		<path class="st2" d="M440,797.1v16.3h17v16.3h-17v32.5h-13.4v-81.3H460v16.3H440z"/>
	</g>
	<path class="st3" d="M259.5,44.7c0,0,81.1,63.4,140.1,159.3L292.6,484.2L166.8,139.5h-1.3C213.5,80.7,259.5,44.7,259.5,44.7z
		 M59,394.8c0-72.7,28.4-140.2,63.7-196.2l138.3,368l-50.9,133.2C150.8,639.7,59,525.7,59,394.8z M259.6,744.8l177.6-465.7
		c13.9,36.2,22.8,75.1,22.8,115.7C460,585.6,264.8,740.8,259.6,744.8z"/>
</g>
</svg>
