<?xml version="1.0" encoding="utf-8"?>
<!-- Generator: Adobe Illustrator 19.2.0, SVG Export Plug-In . SVG Version: 6.00 Build 0)  -->
<svg version="1.1" id="Layer_1" xmlns="http://www.w3.org/2000/svg" xmlns:xlink="http://www.w3.org/1999/xlink" x="0px" y="0px"
	 width="106.9px" height="135px" viewBox="0 0 106.9 135" style="enable-background:new 0 0 106.9 135;" xml:space="preserve">
<path d="M4.7,2.7v97.2H29l24.3,32.4l24.3-32.4h24.3V2.7H4.7L4.7,2.7z M53.2,11.7c0,0,10,7.6,17.4,19.1L57.4,64.3L41.8,22.9h-0.1
	C47.5,15.9,53.2,11.6,53.2,11.7L53.2,11.7z M28.4,53.6c0-8.7,3.5-16.8,7.9-23.5l17.1,44.1l-6.3,15.9C39.7,82.9,28.4,69.2,28.4,53.6
	L28.4,53.6z M53.2,95.5l22-55.7c1.8,4.3,2.8,9,2.8,13.9C78.1,76.4,53.9,95,53.2,95.5z"/>
</svg>
