<svg xmlns="http://www.w3.org/2000/svg" width="528" height="900" viewBox="0 0 528 900"><style>.st0{display:none}.st1{display:inline}.st2{fill:#333}.st3{fill:#fabb05}</style><path class="st0 st1 st2" d="M-540.6 0h1600v900h-1600z" id="Layer_2"/><g id="Layer_1"><path class="st3" d="M78 845.9v-65H64.6v81.3h25v-16.3zM173.5 862.2v-81.3H207v16.3h-20.1v16.3h17.6v16.3h-17.6v16.3h21.2v16.3h-34.6z"/><path class="st2" d="M305.4 853.4l-2.6 8.8h-15.1l28.8-86.5 28.8 86.5h-15l-2.7-8.8-4.9-15.2-6.1-21.1-6.3 21.1-4.9 15.2zM440 797.1v16.3h17v16.3h-17v32.5h-13.4v-81.3H460v16.3h-20z"/><path class="st3" d="M259.5 44.7s81.1 63.4 140.1 159.3l-107 280.2-125.8-344.7h-1.3c48-58.8 94-94.8 94-94.8zM59 394.8c0-72.7 28.4-140.2 63.7-196.2l138.3 368-50.9 133.2C150.8 639.7 59 525.7 59 394.8zm200.6 350l177.6-465.7c13.9 36.2 22.8 75.1 22.8 115.7 0 190.8-195.2 346-200.4 350z"/></g></svg>